<?xml version="1.0" standalone="no"?>
<!DOCTYPE svg PUBLIC "-//W3C//DTD SVG 20010904//EN"
 "http://www.w3.org/TR/2001/REC-SVG-20010904/DTD/svg10.dtd">
<svg version="1.0" xmlns="http://www.w3.org/2000/svg"
 width="281.000000pt" height="281.000000pt" viewBox="0 0 281.000000 281.000000"
 preserveAspectRatio="xMidYMid meet">
<metadata>
Created by potrace 1.14, written by Peter Selinger 2001-2017
</metadata>
<g transform="translate(0.000000,281.000000) scale(0.100000,-0.100000)"
fill="#000000" stroke="none">
<path d="M1726 2470 l-356 -241 -350 236 -350 235 0 -268 c0 -148 3 -310 6
-360 l7 -92 73 -47 c41 -27 74 -52 74 -58 0 -5 -34 -32 -75 -59 l-75 -48 0
-247 c0 -135 -3 -296 -7 -357 l-6 -112 92 -61 c50 -34 91 -67 91 -74 -1 -6
-37 -36 -80 -66 l-80 -54 0 -359 0 -359 28 19 c340 238 666 462 673 462 5 0
44 -24 87 -54 145 -100 605 -407 606 -404 1 2 0 162 -2 356 l-4 353 -79 52
c-43 29 -79 57 -79 62 0 6 37 35 81 65 l82 55 -6 235 c-4 129 -7 290 -7 357
l0 121 -80 53 c-44 29 -80 58 -80 64 0 5 34 33 76 60 42 28 80 57 84 65 5 9 9
168 9 354 1 187 4 343 7 348 3 4 3 8 1 8 -2 0 -164 -108 -361 -240z m-323
-979 c15 -8 27 -18 27 -23 0 -4 7 -8 15 -8 8 0 15 -4 15 -10 0 -5 5 -10 10
-10 6 0 24 -10 40 -21 24 -18 27 -24 15 -35 -7 -8 -18 -14 -24 -14 -6 0 -11
-4 -11 -9 0 -5 -8 -12 -19 -16 -10 -3 -31 -17 -46 -31 -25 -23 -30 -24 -57
-13 -16 7 -35 17 -42 23 -21 19 -70 52 -89 59 -10 4 -17 13 -15 20 5 13 140
109 148 104 3 -1 17 -9 33 -16z"/>
</g>
</svg>
